# xmcd CD database file
#
# Track frame offsets:
#	150
#	12487
#	37962
#	59322
#	86382
#	101145
#	121652
#	132217
#	156010
#	174585
#
# Disc length: 2520 seconds
#
# Revision: 2
# Processed by: cddbd v1.5.2PL0 Copyright (c) Steve Scherf et al.
# Submitted via: CDex 1.51
#
DISCID=7509d60a
DTITLE=Various Artist - Great Blues Harp - A Celebration of Blues
DYEAR=1900
DGENRE=
TTITLE0=High Compression - James Cotton
TTITLE1=Help Me - Sugar Blue
TTITLE2=The Blues Overtook Me - Charlie Musselwhite
TTITLE3=Keep You Hands Out Of My Pockets - Junior Wells
TTITLE4=Sugar Mama - Walter "Shakey" Horton
TTITLE5=New Kid On The Block - Billie Branch
TTITLE6=Step Back Baby - King Biscuit Boy
TTITLE7=My Home Is A Prison - Sugar Ray and Ronnie Earl
TTITLE8=Ridin' In The Moonloght - Kim Wilson and Ronnie Earl
TTITLE9=Full Court Press - Magic Dick with J. Geils
EXTD=
EXTT0=
EXTT1=
EXTT2=
EXTT3=
EXTT4=
EXTT5=
EXTT6=
EXTT7=
EXTT8=
EXTT9=
PLAYORDER=
